<?xml version="1.0" encoding="UTF-8" standalone="no"?>
<!-- Created with Inkscape (http://www.inkscape.org/) -->

<svg
   width="440"
   height="440"
   viewBox="0 0 116.41666 116.41667"
   version="1.1"
   id="svg1"
   inkscape:version="1.3.2 (091e20ef0f, 2023-11-25)"
   sodipodi:docname="logo.svg"
   xml:space="preserve"
   xmlns:inkscape="http://www.inkscape.org/namespaces/inkscape"
   xmlns:sodipodi="http://sodipodi.sourceforge.net/DTD/sodipodi-0.dtd"
   xmlns="http://www.w3.org/2000/svg"
   xmlns:svg="http://www.w3.org/2000/svg"><sodipodi:namedview
     id="namedview1"
     pagecolor="#ffffff"
     bordercolor="#111111"
     borderopacity="1"
     inkscape:showpageshadow="true"
     inkscape:pageopacity="0"
     inkscape:pagecheckerboard="1"
     inkscape:deskcolor="#d1d1d1"
     inkscape:document-units="px"
     labelstyle="below"
     inkscape:zoom="1.4866305"
     inkscape:cx="225.00547"
     inkscape:cy="345.41199"
     inkscape:window-width="2217"
     inkscape:window-height="1318"
     inkscape:window-x="832"
     inkscape:window-y="157"
     inkscape:window-maximized="0"
     inkscape:current-layer="layer3" /><defs
     id="defs1" /><g
     inkscape:label="Layer 1"
     inkscape:groupmode="layer"
     id="layer1"
     transform="translate(-10.670179,-7.7864371)"><g
       inkscape:groupmode="layer"
       id="layer3"
       inkscape:label="ranges"><path
         id="rect4"
         style="fill:#389826;fill-opacity:1;stroke-width:0.264583"
         d="M 68.878511 12.246113 A 53.748501 53.748501 0 0 0 15.129855 65.99477 A 53.748501 53.748501 0 0 0 68.878511 119.74343 A 53.748501 53.748501 0 0 0 122.62717 65.99477 A 53.748501 53.748501 0 0 0 68.878511 12.246113 z " /><path
         id="path3"
         style="fill:#9558b2;stroke-width:0.264583;fill-opacity:1"
         d="M 68.878511 12.246113 A 53.748501 53.748501 0 0 0 16.10654 56.372101 C 16.133674 56.370425 16.159977 56.375711 16.187155 56.373652 C 27.933504 55.483776 53.740008 28.431433 66.910156 34.838532 C 80.080308 41.245634 78.47897 78.79849 90.403296 84.671665 C 95.094202 86.982111 105.96201 88.397637 117.41198 88.977863 A 53.748501 53.748501 0 0 0 122.62717 65.99477 A 53.748501 53.748501 0 0 0 68.878511 12.246113 z " /><path
         id="path4"
         style="fill:#cb3c33;fill-opacity:1;stroke-width:0.264583"
         d="M 33.805717 63.622305 C 26.034452 63.319883 22.12022 75.009476 19.691334 87.529889 A 53.748501 53.748501 0 0 0 68.878511 119.74343 A 53.748501 53.748501 0 0 0 122.62717 65.99477 A 53.748501 53.748501 0 0 0 122.59616 64.729731 C 110.51557 58.722001 111.21822 87.34866 97.877775 100.15547 C 84.529649 112.96968 67.088525 89.655198 42.705949 68.120221 C 39.27715 65.091866 36.337258 63.720821 33.805717 63.622305 z " /><path
         d="m 74.544873,29.651155 c -0.332916,0.02376 -0.380476,0.04168 -0.439927,0.172361 -0.04162,0.0892 -0.101059,0.136719 -0.154559,0.112958 -0.297248,-0.112958 -0.67178,-0.16048 -1.129541,-0.136719 -0.44587,0.01697 -0.588549,0.05356 -0.969026,0.237797 -0.50532,0.237798 -1.099813,0.754992 -1.450565,1.260326 l -0.219964,0.321017 -0.303192,-0.214018 c -1.319777,-0.89173 -2.835737,-1.123587 -4.256579,-0.642053 -0.743119,0.249697 -1.284108,0.600434 -1.943997,1.254386 -1.111703,1.105766 -1.676472,2.306633 -1.872656,3.965274 -0.118899,1.022528 -0.0058,1.997515 0.475595,4.292249 0.422091,1.979677 0.499376,2.58011 0.463706,3.543198 -0.02378,0.701493 -0.0654,0.93929 -0.309138,1.902378 -0.261577,1.028469 -0.285357,1.153307 -0.291303,1.902378 -0.0058,0.671773 0.01792,0.88579 0.130798,1.307885 0.303193,1.099808 0.760953,1.938057 1.432733,2.621729 0.725284,0.731212 1.59919,1.230605 2.716839,1.539742 0.261578,0.07128 0.475596,0.136719 0.487484,0.1486 0.0058,0.0057 0.0654,0.16048 0.130798,0.344796 0.08918,0.243756 0.101059,0.374535 0.05944,0.481554 -0.04756,0.130873 -0.03566,0.148599 0.112958,0.184241 0.231853,0.04752 0.303191,0.142753 0.648,0.83229 0.475595,0.969029 0.986861,2.211533 2.449316,6.004409 1.854824,4.827284 3.454013,11.794762 4.185243,18.280687 0.612329,5.409916 0.659886,11.63426 0.124839,17.507852 -0.130779,1.438683 -0.160518,1.634861 -0.21402,1.634861 -0.02972,0 -0.136738,-0.1486 -0.237797,-0.326957 -0.208072,-0.374536 -0.48154,-0.624232 -0.671778,-0.624232 -0.130779,0 -0.136738,0.02376 -0.20213,1.022528 -0.08918,1.278163 -0.08918,2.413648 -0.006,2.877358 0.03566,0.19024 0.172398,0.60638 0.309136,0.91551 l 0.243743,0.56478 -0.006,0.77284 c 0,0.95119 -0.101059,1.53973 -0.558824,3.2816 -0.190239,0.73124 -0.368587,1.43871 -0.386421,1.57543 -0.03566,0.21997 -0.04756,0.23185 -0.118899,0.13671 -0.243743,-0.33291 -0.326972,-1.5457 -0.172398,-2.49689 0.04756,-0.29725 0.08918,-0.55287 0.08918,-0.58261 0,-0.0892 -0.451815,-0.0356 -0.612329,0.0713 -0.09512,0.0594 -0.255631,0.24376 -0.368586,0.40426 -0.225909,0.33292 -0.558825,0.64205 -0.624221,0.57071 -0.02378,-0.0238 -0.08322,-0.21401 -0.142678,-0.42207 -0.112958,-0.434 -0.48154,-1.19495 -0.826348,-1.7062 -0.130798,-0.1962 -0.540988,-0.73717 -0.91552,-1.20683 -0.832292,-1.04036 -1.290053,-1.71214 -1.510016,-2.18773 -0.36264,-0.79069 -0.642053,-2.84764 -0.915521,-6.652396 -0.309137,-4.35169 -0.326972,-7.597628 -0.05944,-10.106398 0.196184,-1.884539 0.701504,-5.659575 0.945247,-7.145817 0.148618,-0.87985 0.297246,-1.819158 0.332916,-2.098575 0.03566,-0.279398 0.148618,-1.016569 0.249687,-1.634842 0.231855,-1.444623 0.255633,-2.419592 0.0654,-2.835746 -0.368586,-0.808511 -1.248437,-0.636113 -1.688364,0.344815 -0.321027,0.707433 -0.428035,1.272206 -0.760953,4.036613 -0.570714,4.708386 -0.945245,9.559469 -1.230604,15.932431 -0.08918,2.021296 -0.08918,2.235313 0,2.615789 0.04756,0.225898 0.118899,0.600433 0.154578,0.820391 0.07728,0.505314 0.08918,1.819158 0.01792,1.890497 -0.0654,0.06544 -0.433981,-0.701511 -0.600439,-1.254385 -0.160518,-0.523154 -0.285357,-1.325724 -0.398312,-2.467151 -0.04756,-0.523154 -0.107018,-1.034428 -0.124839,-1.129546 -0.02378,-0.154635 0,-0.196178 0.154559,-0.279398 0.208074,-0.118993 0.219964,-0.208077 0.0654,-0.475613 -0.09512,-0.166515 -0.118898,-0.356677 -0.142678,-1.206807 -0.02378,-0.760952 -0.05946,-1.123606 -0.148619,-1.468403 -0.398311,-1.492179 -1.070089,-2.455267 -2.389868,-3.430236 -0.856072,-0.630153 -1.099813,-0.83823 -1.284107,-1.081968 -0.392365,-0.535053 -0.374531,-1.117647 0.178339,-4.750023 0.731229,-4.833225 0.909577,-6.694002 0.850128,-8.798518 -0.08322,-2.835727 -0.653945,-4.993742 -1.777539,-6.711841 -0.124839,-0.196178 -0.124839,-0.202118 -0.01792,-0.16048 0.0654,0.0298 0.243743,0.06544 0.404257,0.08316 0.392365,0.04168 0.772841,-0.118993 1.153318,-0.481535 0.267523,-0.249696 0.309137,-0.321036 0.279411,-0.451815 -0.136738,-0.552874 -0.535044,-1.753759 -1.147372,-3.4124 -0.772843,-2.104515 -0.980915,-2.740627 -1.248438,-3.840435 -0.285359,-1.159266 -0.368588,-1.854818 -0.326972,-2.645489 0.05944,-0.986868 0.02972,-1.046327 -1.016586,-2.116415 -0.713392,-0.725272 -0.903632,-0.963069 -1.218714,-1.510003 -0.416145,-0.707451 -0.719338,-1.004707 -1.307887,-1.272225 -0.392367,-0.178395 -1.052253,-0.237797 -1.4684,-0.136719 -0.380478,0.09504 -0.826349,0.392375 -1.004697,0.659892 l -0.142678,0.219958 -0.404257,-0.0892 c -0.725282,-0.148599 -1.284107,0.0057 -1.706198,0.475595 -0.297247,0.332916 -0.481541,0.766891 -0.600439,1.414884 -0.09512,0.540994 -0.107,2.52661 -0.01791,3.715596 0.172398,2.354193 0.03566,3.780977 -0.636109,6.717782 -0.148618,0.653952 -0.362642,1.628921 -0.46965,2.158015 -0.196184,0.945249 -0.202128,0.986868 -0.118899,1.337605 0.124839,0.529113 0.106999,1.189005 -0.0535,2.401771 -0.535045,3.947434 0.0654,8.079166 1.718088,11.889881 0.618275,1.408944 1.391118,2.847627 2.484987,4.595446 0.766897,1.224646 1.08198,1.676461 2.716838,3.893935 1.59919,2.169891 1.985611,2.734664 2.835737,4.161448 1.349505,2.259093 1.813207,2.889246 5.427735,7.342014 1.521904,1.872651 2.152069,2.758441 2.348251,3.323211 0.04756,0.14276 0.08918,0.43994 0.08918,0.65394 0,0.57667 0.07134,0.90363 0.624221,2.82979 0.582603,2.03316 0.594493,2.09856 0.50532,2.37204 -0.08322,0.24967 -0.0535,0.30913 0.398311,0.90957 0.344806,0.45777 0.499373,0.84421 0.451815,1.11172 -0.02378,0.119 -0.05946,0.1486 -0.130798,0.119 -0.856072,-0.35076 -1.21277,-0.39236 -3.21027,-0.3448 -1.866711,0.0415 -2.461206,0 -3.323223,-0.2497 -1.914272,-0.55287 -3.804762,-2.35421 -4.916469,-4.67274 -0.54099,-1.13548 -0.772841,-2.14017 -0.951189,-4.14956 -0.261579,-2.960584 -0.321026,-3.37078 -0.653944,-4.381428 -0.362642,-1.093867 -0.826347,-1.878598 -2.140179,-3.614518 -1.367338,-1.813199 -1.688365,-2.318532 -2.027227,-3.192442 -0.285356,-0.743112 -0.51721,-1.177083 -0.707447,-1.355441 -0.148619,-0.142753 -0.196184,-0.148599 -0.790677,-0.142753 -0.552882,0.0057 -0.778789,0.04168 -1.700254,0.285356 -0.588549,0.1486 -1.123595,0.273473 -1.194934,0.273473 -0.118899,0 -0.130798,-0.01697 -0.08918,-0.231853 0.02378,-0.124839 0.01792,-0.368596 -0.006,-0.546934 -0.02378,-0.178395 -0.04756,-0.499374 -0.04756,-0.719332 -0.0058,-0.392375 -0.01188,-0.404255 -0.350752,-0.832309 -0.802566,-1.010629 -1.854822,-1.73592 -3.132985,-2.163955 -0.582603,-0.196178 -0.743117,-0.225898 -1.492181,-0.261577 -0.647998,-0.0298 -0.879851,-0.0594 -0.99875,-0.142754 -0.154559,-0.101078 -0.172398,-0.09504 -1.569466,0.439934 -1.682418,0.647993 -2.342306,0.951189 -2.996251,1.385165 -1.474346,0.957148 -1.973719,2.104515 -1.68836,3.85233 0.249685,1.486223 1.266269,3.935554 2.276909,5.463397 0.796623,1.200885 2.27097,2.960585 3.76315,4.482487 3.014087,3.073524 6.111401,5.350424 11.444017,8.400184 3.757204,2.14614 5.772538,3.06167 8.007838,3.6086 1.224658,0.3032 1.932106,0.38642 3.751258,0.45182 2.169905,0.0832 2.871409,0.19023 3.614526,0.56477 0.469651,0.24374 1.123593,1.05225 1.486237,1.84294 0.653942,1.45056 0.677722,3.4005 0.0535,5.25532 -0.09512,0.27941 -0.160518,0.51721 -0.154577,0.52911 0.02972,0.0238 3.239994,-0.27348 4.012837,-0.38048 0.743119,-0.10107 1.260329,-0.19025 1.295999,-0.22591 0.01791,-0.0113 -0.01792,-0.11296 -0.07134,-0.21402 -0.124838,-0.2378 -0.08322,-0.55883 0.112959,-0.98687 0.130798,-0.27942 0.172398,-0.32102 0.49343,-0.43991 0.433983,-0.16652 1.141429,-0.21998 1.569466,-0.119 1.266273,0.2913 2.556326,1.52191 3.614525,3.45996 0.285357,0.52316 0.392366,0.57072 0.778787,0.3448 0.112959,-0.0654 0.273469,-0.15464 0.356698,-0.19024 0.08324,-0.0417 0.154578,-0.0773 0.166458,-0.0832 0.01188,-0.006 -0.04162,-0.11296 -0.118898,-0.2378 -0.118899,-0.20214 -0.142679,-0.33292 -0.166459,-1.06415 -0.02972,-0.80851 -0.03566,-0.84419 -0.249687,-1.29006 -0.546933,-1.15331 -1.385171,-2.02128 -2.990307,-3.1092 -0.499374,-0.3448 -0.665832,-0.48748 -0.642052,-0.55882 0.01792,-0.0536 0.154577,-0.27347 0.2913,-0.48749 0.457763,-0.70149 1.052256,-1.05819 2.699005,-1.62892 1.111705,-0.38642 1.379228,-0.51126 2.051006,-0.94523 1.652695,-1.07605 2.841685,-2.34232 5.005645,-5.34454 1.682419,-2.33041 2.401758,-3.21025 3.442118,-4.19116 0.552878,-0.52911 0.69556,-0.71339 1.670529,-2.18775 1.290054,-1.949937 1.88455,-2.895186 2.437429,-3.917714 1.55163,-2.847627 2.30664,-5.606075 2.43148,-8.857954 0.0416,-0.974968 -0.0179,-1.848878 -0.19024,-2.853585 -0.19024,-1.123588 -0.93336,-4.541928 -1.09981,-5.053201 -0.0951,-0.297238 -0.37453,-0.90957 -0.62422,-1.367325 -0.689612,-1.266285 -0.838236,-1.6527 -1.212772,-3.144883 -0.190236,-0.755011 -0.404253,-1.515943 -0.469646,-1.68836 -0.219966,-0.558815 -0.778787,-1.617022 -1.581358,-3.014085 -0.986858,-1.71214 -1.349502,-2.431472 -1.622969,-3.234043 -0.19618,-0.582613 -0.214019,-0.683672 -0.219961,-1.343564 0,-0.713391 0,-0.725272 0.225909,-1.171146 0.237795,-0.487494 0.689612,-0.992809 1.141425,-1.278165 0.208075,-0.130874 0.261577,-0.190238 0.231853,-0.285357 -0.0535,-0.190238 -0.273469,-0.499374 -0.7015,-0.998749 -0.214017,-0.255636 -0.451818,-0.570713 -0.529102,-0.701511 -0.07134,-0.124839 -0.166458,-0.231857 -0.202127,-0.231857 -0.0416,0 -0.457761,-0.124839 -0.921466,-0.273457 -1.295998,-0.416155 -1.831042,-0.410196 -2.69306,0.01697 -1.284107,0.642071 -3.07948,2.669288 -4.006891,4.530066 -0.433981,0.86201 -0.475597,1.046308 -0.469651,1.938038 0.006,0.606392 -0.02378,0.957148 -0.148618,1.634861 -0.588549,3.168662 -0.653945,3.780995 -0.49343,4.577606 0.112958,0.540994 0.386421,1.301945 0.677724,1.872658 0.219963,0.433975 0.84418,1.397064 0.980914,1.510022 0.0535,0.04168 0.101059,0.112959 0.101059,0.154634 0,0.04168 -0.166458,0.356696 -0.368587,0.695571 -0.529098,0.891731 -1.248436,2.377973 -1.533794,3.180543 -0.344808,0.974969 -0.481541,1.462444 -0.927412,3.341061 -0.499374,2.080717 -0.689614,2.663329 -1.343558,4.197131 -0.969025,2.25907 -1.206822,3.1508 -1.165208,4.333846 0.02378,0.630173 0.0535,0.796631 0.237797,1.343564 0.118899,0.344816 0.392367,1.010629 0.612331,1.486243 0.689612,1.486223 0.885795,2.086656 0.980916,2.984346 0.0535,0.540993 0.04756,0.653951 -0.09512,1.343564 -0.291302,1.408942 -0.124839,2.015332 1.278163,4.696492 0.594495,1.12953 0.790677,1.71808 0.796623,2.36013 0.01188,0.93931 -0.291303,1.45059 -1.640805,2.80009 -0.5291,0.52315 -1.295999,1.30194 -1.706198,1.72404 -0.546935,0.57071 -0.826346,0.81447 -1.070089,0.93335 -0.315083,0.15463 -0.891742,0.3032 -0.891742,0.22592 0,-0.017 0.09512,-0.33292 0.214018,-0.68962 0.291302,-0.92741 0.499374,-1.99749 0.499374,-2.60983 0,-0.42211 0.02378,-0.56479 0.136738,-0.76691 0.124839,-0.24375 0.130779,-0.29131 0.130779,-2.06289 -0.006,-2.06886 -0.04756,-2.44337 -0.392365,-3.45401 -0.285357,-0.83824 -0.291303,-1.08793 -0.05946,-2.04506 0.208071,-0.856066 0.416145,-2.728724 0.600439,-5.350453 0.279411,-4.024713 0.219963,-9.351387 -0.148619,-13.673357 -0.844182,-9.910224 -3.394562,-19.891787 -7.157712,-28.012572 -0.202128,-0.428035 -0.36264,-0.79663 -0.36264,-0.814451 0,-0.01132 0.154559,-0.08316 0.344806,-0.154634 0.487484,-0.190238 1.385172,-0.214018 2.966527,-0.0892 0.939301,0.07128 1.414896,0.08316 1.735924,0.04752 0.433981,-0.0594 0.439925,-0.0594 0.725284,0.136719 1.177098,0.790671 2.889242,0.713392 4.684615,-0.214017 0.998748,-0.517214 1.926161,-1.319785 2.467149,-2.134235 0.523156,-0.784731 0.713396,-1.426784 0.67178,-2.253134 -0.02378,-0.535053 -0.01791,-0.564773 0.172398,-0.927409 0.380476,-0.713392 0.784731,-1.860778 0.998749,-2.829788 0.05946,-0.267517 0.344808,-0.326976 1.581355,-0.326976 0.606385,0 1.129539,-0.01697 1.165213,-0.04167 0.142678,-0.0892 0.219959,-0.576654 0.190235,-1.165207 -0.02974,-0.475594 -0.07134,-0.683672 -0.255634,-1.171147 -0.124839,-0.326976 -0.225904,-0.648011 -0.225904,-0.71341 0,-0.06544 0.0654,-0.332897 0.142678,-0.594474 0.118899,-0.422095 0.136738,-0.600453 0.136738,-1.575421 0,-1.046308 -0.0058,-1.123588 -0.166458,-1.605141 -0.297246,-0.90957 -0.778788,-1.652682 -1.420841,-2.187735 -0.582607,-0.481535 -1.676476,-0.90363 -2.354198,-0.90363 -0.208074,0 -0.344808,-0.07732 -1.206824,-0.731231 -0.535044,-0.404255 -1.212768,-0.87985 -1.510017,-1.064147 -1.290053,-0.796612 -2.776287,-1.403004 -4.006891,-1.628902 -0.68367,-0.124839 -0.725283,-0.1486 -0.642054,-0.386435 0.05946,-0.17236 0.02972,-0.362636 -0.0535,-0.338856 -0.02378,0.0057 -0.214017,0.01697 -0.422091,0.0298 z m 0.410201,78.550525 c 0.006,0.75503 -0.09512,1.28413 -0.469651,2.40772 -0.208073,0.61827 -0.279412,0.79069 -0.297246,0.65989 -0.02972,-0.25564 0.08322,-1.06415 0.344806,-2.3542 0.124839,-0.63613 0.249687,-1.29602 0.273467,-1.45652 l 0.04162,-0.29725 0.0535,0.20807 c 0.02378,0.11296 0.04756,0.48748 0.0535,0.83229 z"
         id="path1"
         style="fill:#000000;stroke:none;stroke-width:0.00594495" /></g><g
       inkscape:groupmode="layer"
       id="layer2"
       inkscape:label="circular mask"
       style="display:inline"><circle
         style="display:inline;fill:none;stroke-width:5.29166659;stroke:#000000;stroke-opacity:1;stroke-dasharray:none"
         id="path2"
         cx="68.87851"
         cy="65.994766"
         r="53.748501" /></g></g></svg>
